#!OML:ASF X:\für Bonn\!DataBase\2005_08_12_Daniel\c3d\Daniel.ASF
:FULLY-SPECIFIED
:DEGREES
526
root 19.1688 1.21206 0.602368 -1702.33 260.946 146.998
lowerback 28.0671 -3.18051 0.303782
upperback 5.9232 -4.80956 -2.14952
thorax -9.06263 -2.56866 -0.852317
lowerneck -14.8419 2.2077 -4.08703
upperneck 6.87196 3.70434 -0.122947
head 4.38623 1.6707 0.905945
rclavicle 3.02153e-014 4.98552e-014
rhumerus -405.063 -8.78191 292.838
rradius 12.7503
rwrist 65.2119
rhand -8.42789 738.336
rfingers 7.12502
rthumb 17.4971 709.104
lclavicle 3.02153e-014 4.98552e-014
lhumerus -590.84 152.088 -490.008
lradius 17.0064
lwrist -54.8473
lhand -3.86086 -726.248
lfingers 7.12502
lthumb 21.8876 22.5336
rfemur -510.37 -167.569 541.272
rtibia 16.4308
rfoot -43.8893 -10.3787
rtoes 38.1435
lfemur 16.136 718.123 -17.3729
ltibia 39.9914
lfoot 137.873 551.829
ltoes 27.4829
527
root 19.165 1.21164 0.602979 -1702.23 260.937 146.906
lowerback 28.0399 -3.18647 0.296872
upperback 5.94783 -4.81995 -2.14662
thorax -9.02068 -2.5747 -0.843664
lowerneck -14.9424 2.20781 -4.0969
upperneck 6.89618 3.70977 -0.110011
head 4.40922 1.67285 0.913573
rclavicle 6.83819e-014 -2.45546e-014
rhumerus -405.004 -8.72264 292.792
rradius 12.7446
rwrist 65.0957
rhand -8.41531 738.391
rfingers 7.12502
rthumb 17.5092 709.159
lclavicle 6.83819e-014 -2.45546e-014
lhumerus -590.792 152.045 -489.997
lradius 16.9865
lwrist -54.8543
lhand -3.85846 -726.247
lfingers 7.12502
lthumb 21.8899 22.5345
rfemur -510.46 -167.639 541.323
rtibia 16.6084
rfoot -44.0062 -10.137
rtoes 38.3313
lfemur 16.126 718.546 -17.0883
ltibia 40.0165
lfoot 138.048 551.831
ltoes 27.6736
528
root 19.1612 1.20987 0.604616 -1702.14 260.928 146.812
lowerback 28.0425 -3.20126 0.289021
upperback 5.95209 -4.84133 -2.13526
thorax -9.01606 -2.58512 -0.818939
lowerneck -14.9764 2.20401 -4.17141
upperneck 6.8675 3.7136 -0.0533656
head 4.40311 1.67648 0.943349
rclavicle 1.43125e-014 9.38248e-015
rhumerus -404.971 -8.57565 292.705
rradius 12.7749
rwrist 64.9415
rhand -8.39267 738.394
rfingers 7.12502
rthumb 17.531 709.164
lclavicle 1.43125e-014 9.38248e-015
lhumerus -590.836 151.944 -490.053
lradius 16.9846
lwrist -54.9382
lhand -3.84966 -726.255
lfingers 7.12502
lthumb 21.8983 22.5256
rfemur -510.547 -167.718 541.372
rtibia 16.7752
rfoot -44.1481 -9.96853
rtoes 38.4501
lfemur 16.1069 718.935 -16.8364
ltibia 40.0436
lfoot 138.172 551.843
ltoes 27.7905
529
root 19.1584 1.20942 0.605314 -1702.01 260.912 146.684
lowerback 28.0247 -3.21024 0.279012
upperback 5.96073 -4.8561 -2.13309
thorax -8.99683 -2.59249 -0.8068
lowerneck -14.9994 2.20729 -4.18291
upperneck 6.87048 3.71956 -0.0371183
head 4.40703 1.67994 0.95101
rclavicle -2.06736e-014 -3.41102e-014
rhumerus -404.947 -8.46008 292.632
rradius 12.797
rwrist 64.7698
rhand -8.36813 738.445
rfingers 7.12502
rthumb 17.5546 709.217
lclavicle -2.06736e-014 -3.41102e-014
lhumerus -590.814 151.965 -489.998
lradius 16.9935
lwrist -54.8557
lhand -3.83002 -726.226
lfingers 7.12502
lthumb 21.9172 22.5529
rfemur -510.609 -167.785 541.417
rtibia 16.9021
rfoot -44.349 -9.78775
rtoes 38.4616
lfemur 16.0705 719.269 -16.6221
ltibia 40.081
lfoot 138.246 551.95
ltoes 27.8573
530
root 19.1546 1.20796 0.606573 -1701.97 260.904 146.647
lowerback 28.0058 -3.2148 0.261287
upperback 5.98574 -4.86765 -2.12492
thorax -8.95729 -2.59893 -0.785313
lowerneck -15.0377 2.20938 -4.21639
upperneck 6.8367 3.72544 7.15027e-005
head 4.40111 1.68453 0.968421
rclavicle -8.50798e-014 4.50465e-014
rhumerus -404.882 -8.3885 292.572
rradius 12.7917
rwrist 64.6489
rhand -8.34177 738.446
rfingers 7.12502
rthumb 17.58 709.221
lclavicle -8.50798e-014 4.50465e-014
lhumerus -590.827 151.845 -490.051
lradius 16.9846
lwrist -54.9195
lhand -3.87217 -726.222
lfingers 7.12502
lthumb 21.8767 22.5617
rfemur -510.66 -167.812 541.424
rtibia 17.0214
rfoot -44.5197 -9.64888
rtoes 38.3028
lfemur 16.036 719.615 -16.405
ltibia 40.1183
lfoot 138.332 552.059
ltoes 27.8887
